<?xml version="1.0" encoding="utf-8" ?>
<svg baseProfile="full" height="200" version="1.1" width="480" xmlns="http://www.w3.org/2000/svg" xmlns:ev="http://www.w3.org/2001/xml-events" xmlns:xlink="http://www.w3.org/1999/xlink"><defs /><g fill="none" id="pa" stroke="black"><path d="M 10,100 A1,1 0 0 0 12,100" /><path d="M 12,100 A1,1 0 0 1 16,100" /><path d="M 16,100 A1,1 0 0 0 22,100" /><path d="M 22,100 A1,1 0 0 0 14,100" /><path d="M 14,100 A1,1 0 0 0 24,100" /><path d="M 24,100 A1,1 0 0 1 36,100" /><path d="M 36,100 A1,1 0 0 0 50,100" /><path d="M 50,100 A1,1 0 0 0 34,100" /><path d="M 34,100 A1,1 0 0 0 52,100" /><path d="M 52,100 A1,1 0 0 0 32,100" /><path d="M 32,100 A1,1 0 0 0 54,100" /><path d="M 54,100 A1,1 0 0 0 30,100" /><path d="M 30,100 A1,1 0 0 0 56,100" /><path d="M 56,100 A1,1 0 0 0 28,100" /><path d="M 28,100 A1,1 0 0 0 58,100" /><path d="M 58,100 A1,1 0 0 0 26,100" /><path d="M 26,100 A1,1 0 0 0 60,100" /><path d="M 60,100 A1,1 0 0 1 96,100" /><path d="M 96,100 A1,1 0 0 0 134,100" /><path d="M 134,100 A1,1 0 0 0 94,100" /><path d="M 94,100 A1,1 0 0 0 136,100" /><path d="M 136,100 A1,1 0 0 0 92,100" /><path d="M 92,100 A1,1 0 0 1 46,100" /><path d="M 46,100 A1,1 0 0 1 94,100" /><path d="M 94,100 A1,1 0 0 1 44,100" /><path d="M 44,100 A1,1 0 0 1 96,100" /><path d="M 96,100 A1,1 0 0 1 42,100" /><path d="M 42,100 A1,1 0 0 1 98,100" /><path d="M 98,100 A1,1 0 0 1 40,100" /><path d="M 40,100 A1,1 0 0 1 100,100" /><path d="M 100,100 A1,1 0 0 1 38,100" /><path d="M 38,100 A1,1 0 0 1 102,100" /><path d="M 102,100 A1,1 0 0 0 168,100" /><path d="M 168,100 A1,1 0 0 1 236,100" /><path d="M 236,100 A1,1 0 0 1 166,100" /><path d="M 166,100 A1,1 0 0 1 238,100" /><path d="M 238,100 A1,1 0 0 1 164,100" /><path d="M 164,100 A1,1 0 0 0 88,100" /><path d="M 88,100 A1,1 0 0 0 166,100" /><path d="M 166,100 A1,1 0 0 0 86,100" /><path d="M 86,100 A1,1 0 0 0 168,100" /><path d="M 168,100 A1,1 0 0 0 84,100" /><path d="M 84,100 A1,1 0 0 0 170,100" /><path d="M 170,100 A1,1 0 0 0 82,100" /><path d="M 82,100 A1,1 0 0 0 172,100" /><path d="M 172,100 A1,1 0 0 0 80,100" /><path d="M 80,100 A1,1 0 0 0 174,100" /><path d="M 174,100 A1,1 0 0 0 78,100" /><path d="M 78,100 A1,1 0 0 0 176,100" /><path d="M 176,100 A1,1 0 0 0 76,100" /><path d="M 76,100 A1,1 0 0 0 178,100" /><path d="M 178,100 A1,1 0 0 0 74,100" /><path d="M 74,100 A1,1 0 0 0 180,100" /><path d="M 180,100 A1,1 0 0 0 72,100" /><path d="M 72,100 A1,1 0 0 0 182,100" /><path d="M 182,100 A1,1 0 0 0 70,100" /><path d="M 70,100 A1,1 0 0 0 184,100" /><path d="M 184,100 A1,1 0 0 0 68,100" /><path d="M 68,100 A1,1 0 0 0 186,100" /><path d="M 186,100 A1,1 0 0 0 66,100" /><path d="M 66,100 A1,1 0 0 0 188,100" /><path d="M 188,100 A1,1 0 0 0 64,100" /><path d="M 64,100 A1,1 0 0 0 190,100" /><path d="M 190,100 A1,1 0 0 0 62,100" /><path d="M 62,100 A1,1 0 0 0 192,100" /><path d="M 192,100 A1,1 0 0 1 324,100" /><path d="M 324,100 A1,1 0 0 0 458,100" /><path d="M 458,100 A1,1 0 0 0 322,100" /><path d="M 322,100 A1,1 0 0 0 460,100" /><path d="M 460,100 A1,1 0 0 0 320,100" /><path d="M 320,100 A1,1 0 0 0 462,100" /><path d="M 462,100 A1,1 0 0 0 318,100" /><path d="M 318,100 A1,1 0 0 0 464,100" /><path d="M 464,100 A1,1 0 0 0 316,100" /><path d="M 316,100 A1,1 0 0 0 466,100" /><path d="M 466,100 A1,1 0 0 0 314,100" /><path d="M 314,100 A1,1 0 0 1 160,100" /><path d="M 160,100 A1,1 0 0 1 316,100" /><path d="M 316,100 A1,1 0 0 1 158,100" /><path d="M 158,100 A1,1 0 0 1 318,100" /><path d="M 318,100 A1,1 0 0 1 156,100" /><path d="M 156,100 A1,1 0 0 1 320,100" /><path d="M 320,100 A1,1 0 0 1 154,100" /><path d="M 154,100 A1,1 0 0 1 322,100" /><path d="M 322,100 A1,1 0 0 1 152,100" /><path d="M 152,100 A1,1 0 0 1 324,100" /><path d="M 324,100 A1,1 0 0 1 150,100" /><path d="M 150,100 A1,1 0 0 1 326,100" /><path d="M 326,100 A1,1 0 0 1 148,100" /></g></svg>